 http://desibbrg.org/images/66952052392581364616.gif
 
http://desibbrg.org/images/31037312327710746035.png
 
http://desibbrg.org/images/00021704724230646809.jpg


Info - 
General
Format : MPEG-PS
File size : 674 MiB
Duration : 1h 51mn
Overall bit rate mode : Variable
Overall bit rate : 845 Kbps
Video #224
ID : 224 (0xE0)
Format : MPEG Video
Format version : Version 2
Format profile : Main@Main
Format settings, BVOP : Yes
Format settings, Matrix : Default
Duration : 1h 51mn
Bit rate mode : Variable
Bit rate : 700 Kbps
Maximum bit rate : 9 672 Kbps
Width : 352 pixels
Height : 288 pixels
Display aspect ratio : 4:3
Frame rate : 25.000 fps
Standard : PAL
Color space : YUV
Chroma subsampling : 4:2:0
Bit depth : 8 bits
Scan type : Progressive
Compression mode : Lossy
Bits/(Pixel*Frame) : 0.276
Stream size : 558 MiB (83%)

Audio #192
ID : 192 (0xC0)
Format : MPEG Audio
Format version : Version 1
Format profile : Layer 2
Duration : 1h 51mn
Bit rate mode : Constant
Bit rate : 128 Kbps
Channel(s) : 2 channels
Sampling rate : 48.0 KHz
Compression mode : Lossy
Stream size : 102 MiB (15%)

Ripper : Deshi Digital Dhoom

Seeding 24x7... Extreme Seeding...


Enjoy!
